<?xml version="1.0" encoding="utf-8" standalone="no"?>
<!DOCTYPE svg PUBLIC "-//W3C//DTD SVG 1.1//EN"
  "http://www.w3.org/Graphics/SVG/1.1/DTD/svg11.dtd">
<svg xmlns:xlink="http://www.w3.org/1999/xlink" width="505.9775pt" height="393.504531pt" viewBox="0 0 505.9775 393.504531" xmlns="http://www.w3.org/2000/svg" version="1.1">
 <metadata>
  <rdf:RDF xmlns:dc="http://purl.org/dc/elements/1.1/" xmlns:cc="http://creativecommons.org/ns#" xmlns:rdf="http://www.w3.org/1999/02/22-rdf-syntax-ns#">
   <cc:Work>
    <dc:type rdf:resource="http://purl.org/dc/dcmitype/StillImage"/>
    <dc:date>2025-06-29T20:20:30.809946</dc:date>
    <dc:format>image/svg+xml</dc:format>
    <dc:creator>
     <cc:Agent>
      <dc:title>Matplotlib v3.9.0, https://matplotlib.org/</dc:title>
     </cc:Agent>
    </dc:creator>
   </cc:Work>
  </rdf:RDF>
 </metadata>
 <defs>
  <style type="text/css">*{stroke-linejoin: round; stroke-linecap: butt}</style>
 </defs>
 <g id="figure_1">
  <g id="patch_1">
   <path d="M 0 393.504531 
L 505.9775 393.504531 
L 505.9775 0 
L 0 0 
z
" style="fill: #ffffff"/>
  </g>
  <g id="axes_1">
   <g id="patch_2">
    <path d="M 44.425938 355.303594 
L 490.825938 355.303594 
L 490.825938 22.663594 
L 44.425938 22.663594 
z
" style="fill: #ffffff"/>
   </g>
   <g id="matplotlib.axis_1">
    <g id="xtick_1">
     <g id="line2d_1">
      <defs>
       <path id="m1c4aa46876" d="M 0 0 
L 0 3.5 
" style="stroke: #000000; stroke-width: 0.8"/>
      </defs>
      <g>
       <use xlink:href="#m1c4aa46876" x="44.425938" y="355.303594" style="stroke: #000000; stroke-width: 0.8"/>
      </g>
     </g>
     <g id="text_1">
      <!-- 0.0 -->
      <g transform="translate(36.474375 369.902031) scale(0.1 -0.1)">
       <defs>
        <path id="DejaVuSans-30" d="M 2034 4250 
Q 1547 4250 1301 3770 
Q 1056 3291 1056 2328 
Q 1056 1369 1301 889 
Q 1547 409 2034 409 
Q 2525 409 2770 889 
Q 3016 1369 3016 2328 
Q 3016 3291 2770 3770 
Q 2525 4250 2034 4250 
z
M 2034 4750 
Q 2819 4750 3233 4129 
Q 3647 3509 3647 2328 
Q 3647 1150 3233 529 
Q 2819 -91 2034 -91 
Q 1250 -91 836 529 
Q 422 1150 422 2328 
Q 422 3509 836 4129 
Q 1250 4750 2034 4750 
z
" transform="scale(0.015625)"/>
        <path id="DejaVuSans-2e" d="M 684 794 
L 1344 794 
L 1344 0 
L 684 0 
L 684 794 
z
" transform="scale(0.015625)"/>
       </defs>
       <use xlink:href="#DejaVuSans-30"/>
       <use xlink:href="#DejaVuSans-2e" x="63.623047"/>
       <use xlink:href="#DejaVuSans-30" x="95.410156"/>
      </g>
     </g>
    </g>
    <g id="xtick_2">
     <g id="line2d_2">
      <g>
       <use xlink:href="#m1c4aa46876" x="133.705938" y="355.303594" style="stroke: #000000; stroke-width: 0.8"/>
      </g>
     </g>
     <g id="text_2">
      <!-- 0.2 -->
      <g transform="translate(125.754375 369.902031) scale(0.1 -0.1)">
       <defs>
        <path id="DejaVuSans-32" d="M 1228 531 
L 3431 531 
L 3431 0 
L 469 0 
L 469 531 
Q 828 903 1448 1529 
Q 2069 2156 2228 2338 
Q 2531 2678 2651 2914 
Q 2772 3150 2772 3378 
Q 2772 3750 2511 3984 
Q 2250 4219 1831 4219 
Q 1534 4219 1204 4116 
Q 875 4013 500 3803 
L 500 4441 
Q 881 4594 1212 4672 
Q 1544 4750 1819 4750 
Q 2544 4750 2975 4387 
Q 3406 4025 3406 3419 
Q 3406 3131 3298 2873 
Q 3191 2616 2906 2266 
Q 2828 2175 2409 1742 
Q 1991 1309 1228 531 
z
" transform="scale(0.015625)"/>
       </defs>
       <use xlink:href="#DejaVuSans-30"/>
       <use xlink:href="#DejaVuSans-2e" x="63.623047"/>
       <use xlink:href="#DejaVuSans-32" x="95.410156"/>
      </g>
     </g>
    </g>
    <g id="xtick_3">
     <g id="line2d_3">
      <g>
       <use xlink:href="#m1c4aa46876" x="222.985938" y="355.303594" style="stroke: #000000; stroke-width: 0.8"/>
      </g>
     </g>
     <g id="text_3">
      <!-- 0.4 -->
      <g transform="translate(215.034375 369.902031) scale(0.1 -0.1)">
       <defs>
        <path id="DejaVuSans-34" d="M 2419 4116 
L 825 1625 
L 2419 1625 
L 2419 4116 
z
M 2253 4666 
L 3047 4666 
L 3047 1625 
L 3713 1625 
L 3713 1100 
L 3047 1100 
L 3047 0 
L 2419 0 
L 2419 1100 
L 313 1100 
L 313 1709 
L 2253 4666 
z
" transform="scale(0.015625)"/>
       </defs>
       <use xlink:href="#DejaVuSans-30"/>
       <use xlink:href="#DejaVuSans-2e" x="63.623047"/>
       <use xlink:href="#DejaVuSans-34" x="95.410156"/>
      </g>
     </g>
    </g>
    <g id="xtick_4">
     <g id="line2d_4">
      <g>
       <use xlink:href="#m1c4aa46876" x="312.265938" y="355.303594" style="stroke: #000000; stroke-width: 0.8"/>
      </g>
     </g>
     <g id="text_4">
      <!-- 0.6 -->
      <g transform="translate(304.314375 369.902031) scale(0.1 -0.1)">
       <defs>
        <path id="DejaVuSans-36" d="M 2113 2584 
Q 1688 2584 1439 2293 
Q 1191 2003 1191 1497 
Q 1191 994 1439 701 
Q 1688 409 2113 409 
Q 2538 409 2786 701 
Q 3034 994 3034 1497 
Q 3034 2003 2786 2293 
Q 2538 2584 2113 2584 
z
M 3366 4563 
L 3366 3988 
Q 3128 4100 2886 4159 
Q 2644 4219 2406 4219 
Q 1781 4219 1451 3797 
Q 1122 3375 1075 2522 
Q 1259 2794 1537 2939 
Q 1816 3084 2150 3084 
Q 2853 3084 3261 2657 
Q 3669 2231 3669 1497 
Q 3669 778 3244 343 
Q 2819 -91 2113 -91 
Q 1303 -91 875 529 
Q 447 1150 447 2328 
Q 447 3434 972 4092 
Q 1497 4750 2381 4750 
Q 2619 4750 2861 4703 
Q 3103 4656 3366 4563 
z
" transform="scale(0.015625)"/>
       </defs>
       <use xlink:href="#DejaVuSans-30"/>
       <use xlink:href="#DejaVuSans-2e" x="63.623047"/>
       <use xlink:href="#DejaVuSans-36" x="95.410156"/>
      </g>
     </g>
    </g>
    <g id="xtick_5">
     <g id="line2d_5">
      <g>
       <use xlink:href="#m1c4aa46876" x="401.545938" y="355.303594" style="stroke: #000000; stroke-width: 0.8"/>
      </g>
     </g>
     <g id="text_5">
      <!-- 0.8 -->
      <g transform="translate(393.594375 369.902031) scale(0.1 -0.1)">
       <defs>
        <path id="DejaVuSans-38" d="M 2034 2216 
Q 1584 2216 1326 1975 
Q 1069 1734 1069 1313 
Q 1069 891 1326 650 
Q 1584 409 2034 409 
Q 2484 409 2743 651 
Q 3003 894 3003 1313 
Q 3003 1734 2745 1975 
Q 2488 2216 2034 2216 
z
M 1403 2484 
Q 997 2584 770 2862 
Q 544 3141 544 3541 
Q 544 4100 942 4425 
Q 1341 4750 2034 4750 
Q 2731 4750 3128 4425 
Q 3525 4100 3525 3541 
Q 3525 3141 3298 2862 
Q 3072 2584 2669 2484 
Q 3125 2378 3379 2068 
Q 3634 1759 3634 1313 
Q 3634 634 3220 271 
Q 2806 -91 2034 -91 
Q 1263 -91 848 271 
Q 434 634 434 1313 
Q 434 1759 690 2068 
Q 947 2378 1403 2484 
z
M 1172 3481 
Q 1172 3119 1398 2916 
Q 1625 2713 2034 2713 
Q 2441 2713 2670 2916 
Q 2900 3119 2900 3481 
Q 2900 3844 2670 4047 
Q 2441 4250 2034 4250 
Q 1625 4250 1398 4047 
Q 1172 3844 1172 3481 
z
" transform="scale(0.015625)"/>
       </defs>
       <use xlink:href="#DejaVuSans-30"/>
       <use xlink:href="#DejaVuSans-2e" x="63.623047"/>
       <use xlink:href="#DejaVuSans-38" x="95.410156"/>
      </g>
     </g>
    </g>
    <g id="xtick_6">
     <g id="line2d_6">
      <g>
       <use xlink:href="#m1c4aa46876" x="490.825938" y="355.303594" style="stroke: #000000; stroke-width: 0.8"/>
      </g>
     </g>
     <g id="text_6">
      <!-- 1.0 -->
      <g transform="translate(482.874375 369.902031) scale(0.1 -0.1)">
       <defs>
        <path id="DejaVuSans-31" d="M 794 531 
L 1825 531 
L 1825 4091 
L 703 3866 
L 703 4441 
L 1819 4666 
L 2450 4666 
L 2450 531 
L 3481 531 
L 3481 0 
L 794 0 
L 794 531 
z
" transform="scale(0.015625)"/>
       </defs>
       <use xlink:href="#DejaVuSans-31"/>
       <use xlink:href="#DejaVuSans-2e" x="63.623047"/>
       <use xlink:href="#DejaVuSans-30" x="95.410156"/>
      </g>
     </g>
    </g>
    <g id="text_7">
     <!-- 1 - Specificity (False Positive Rate) -->
     <g transform="translate(182.352734 383.989375) scale(0.11 -0.11)">
      <defs>
       <path id="ArialMT-31" d="M 2384 0 
L 1822 0 
L 1822 3584 
Q 1619 3391 1289 3197 
Q 959 3003 697 2906 
L 697 3450 
Q 1169 3672 1522 3987 
Q 1875 4303 2022 4600 
L 2384 4600 
L 2384 0 
z
" transform="scale(0.015625)"/>
       <path id="ArialMT-20" transform="scale(0.015625)"/>
       <path id="ArialMT-2d" d="M 203 1375 
L 203 1941 
L 1931 1941 
L 1931 1375 
L 203 1375 
z
" transform="scale(0.015625)"/>
       <path id="ArialMT-53" d="M 288 1472 
L 859 1522 
Q 900 1178 1048 958 
Q 1197 738 1509 602 
Q 1822 466 2213 466 
Q 2559 466 2825 569 
Q 3091 672 3220 851 
Q 3350 1031 3350 1244 
Q 3350 1459 3225 1620 
Q 3100 1781 2813 1891 
Q 2628 1963 1997 2114 
Q 1366 2266 1113 2400 
Q 784 2572 623 2826 
Q 463 3081 463 3397 
Q 463 3744 659 4045 
Q 856 4347 1234 4503 
Q 1613 4659 2075 4659 
Q 2584 4659 2973 4495 
Q 3363 4331 3572 4012 
Q 3781 3694 3797 3291 
L 3216 3247 
Q 3169 3681 2898 3903 
Q 2628 4125 2100 4125 
Q 1550 4125 1298 3923 
Q 1047 3722 1047 3438 
Q 1047 3191 1225 3031 
Q 1400 2872 2139 2705 
Q 2878 2538 3153 2413 
Q 3553 2228 3743 1945 
Q 3934 1663 3934 1294 
Q 3934 928 3725 604 
Q 3516 281 3123 101 
Q 2731 -78 2241 -78 
Q 1619 -78 1198 103 
Q 778 284 539 648 
Q 300 1013 288 1472 
z
" transform="scale(0.015625)"/>
       <path id="ArialMT-70" d="M 422 -1272 
L 422 3319 
L 934 3319 
L 934 2888 
Q 1116 3141 1344 3267 
Q 1572 3394 1897 3394 
Q 2322 3394 2647 3175 
Q 2972 2956 3137 2557 
Q 3303 2159 3303 1684 
Q 3303 1175 3120 767 
Q 2938 359 2589 142 
Q 2241 -75 1856 -75 
Q 1575 -75 1351 44 
Q 1128 163 984 344 
L 984 -1272 
L 422 -1272 
z
M 931 1641 
Q 931 1000 1190 694 
Q 1450 388 1819 388 
Q 2194 388 2461 705 
Q 2728 1022 2728 1688 
Q 2728 2322 2467 2637 
Q 2206 2953 1844 2953 
Q 1484 2953 1207 2617 
Q 931 2281 931 1641 
z
" transform="scale(0.015625)"/>
       <path id="ArialMT-65" d="M 2694 1069 
L 3275 997 
Q 3138 488 2766 206 
Q 2394 -75 1816 -75 
Q 1088 -75 661 373 
Q 234 822 234 1631 
Q 234 2469 665 2931 
Q 1097 3394 1784 3394 
Q 2450 3394 2872 2941 
Q 3294 2488 3294 1666 
Q 3294 1616 3291 1516 
L 816 1516 
Q 847 969 1125 678 
Q 1403 388 1819 388 
Q 2128 388 2347 550 
Q 2566 713 2694 1069 
z
M 847 1978 
L 2700 1978 
Q 2663 2397 2488 2606 
Q 2219 2931 1791 2931 
Q 1403 2931 1139 2672 
Q 875 2413 847 1978 
z
" transform="scale(0.015625)"/>
       <path id="ArialMT-63" d="M 2588 1216 
L 3141 1144 
Q 3050 572 2676 248 
Q 2303 -75 1759 -75 
Q 1078 -75 664 370 
Q 250 816 250 1647 
Q 250 2184 428 2587 
Q 606 2991 970 3192 
Q 1334 3394 1763 3394 
Q 2303 3394 2647 3120 
Q 2991 2847 3088 2344 
L 2541 2259 
Q 2463 2594 2264 2762 
Q 2066 2931 1784 2931 
Q 1359 2931 1093 2626 
Q 828 2322 828 1663 
Q 828 994 1084 691 
Q 1341 388 1753 388 
Q 2084 388 2306 591 
Q 2528 794 2588 1216 
z
" transform="scale(0.015625)"/>
       <path id="ArialMT-69" d="M 425 3934 
L 425 4581 
L 988 4581 
L 988 3934 
L 425 3934 
z
M 425 0 
L 425 3319 
L 988 3319 
L 988 0 
L 425 0 
z
" transform="scale(0.015625)"/>
       <path id="ArialMT-66" d="M 556 0 
L 556 2881 
L 59 2881 
L 59 3319 
L 556 3319 
L 556 3672 
Q 556 4006 616 4169 
Q 697 4388 901 4523 
Q 1106 4659 1475 4659 
Q 1713 4659 2000 4603 
L 1916 4113 
Q 1741 4144 1584 4144 
Q 1328 4144 1222 4034 
Q 1116 3925 1116 3625 
L 1116 3319 
L 1763 3319 
L 1763 2881 
L 1116 2881 
L 1116 0 
L 556 0 
z
" transform="scale(0.015625)"/>
       <path id="ArialMT-74" d="M 1650 503 
L 1731 6 
Q 1494 -44 1306 -44 
Q 1000 -44 831 53 
Q 663 150 594 308 
Q 525 466 525 972 
L 525 2881 
L 113 2881 
L 113 3319 
L 525 3319 
L 525 4141 
L 1084 4478 
L 1084 3319 
L 1650 3319 
L 1650 2881 
L 1084 2881 
L 1084 941 
Q 1084 700 1114 631 
Q 1144 563 1211 522 
Q 1278 481 1403 481 
Q 1497 481 1650 503 
z
" transform="scale(0.015625)"/>
       <path id="ArialMT-79" d="M 397 -1278 
L 334 -750 
Q 519 -800 656 -800 
Q 844 -800 956 -737 
Q 1069 -675 1141 -563 
Q 1194 -478 1313 -144 
Q 1328 -97 1363 -6 
L 103 3319 
L 709 3319 
L 1400 1397 
Q 1534 1031 1641 628 
Q 1738 1016 1872 1384 
L 2581 3319 
L 3144 3319 
L 1881 -56 
Q 1678 -603 1566 -809 
Q 1416 -1088 1222 -1217 
Q 1028 -1347 759 -1347 
Q 597 -1347 397 -1278 
z
" transform="scale(0.015625)"/>
       <path id="ArialMT-28" d="M 1497 -1347 
Q 1031 -759 709 28 
Q 388 816 388 1659 
Q 388 2403 628 3084 
Q 909 3875 1497 4659 
L 1900 4659 
Q 1522 4009 1400 3731 
Q 1209 3300 1100 2831 
Q 966 2247 966 1656 
Q 966 153 1900 -1347 
L 1497 -1347 
z
" transform="scale(0.015625)"/>
       <path id="ArialMT-46" d="M 525 0 
L 525 4581 
L 3616 4581 
L 3616 4041 
L 1131 4041 
L 1131 2622 
L 3281 2622 
L 3281 2081 
L 1131 2081 
L 1131 0 
L 525 0 
z
" transform="scale(0.015625)"/>
       <path id="ArialMT-61" d="M 2588 409 
Q 2275 144 1986 34 
Q 1697 -75 1366 -75 
Q 819 -75 525 192 
Q 231 459 231 875 
Q 231 1119 342 1320 
Q 453 1522 633 1644 
Q 813 1766 1038 1828 
Q 1203 1872 1538 1913 
Q 2219 1994 2541 2106 
Q 2544 2222 2544 2253 
Q 2544 2597 2384 2738 
Q 2169 2928 1744 2928 
Q 1347 2928 1158 2789 
Q 969 2650 878 2297 
L 328 2372 
Q 403 2725 575 2942 
Q 747 3159 1072 3276 
Q 1397 3394 1825 3394 
Q 2250 3394 2515 3294 
Q 2781 3194 2906 3042 
Q 3031 2891 3081 2659 
Q 3109 2516 3109 2141 
L 3109 1391 
Q 3109 606 3145 398 
Q 3181 191 3288 0 
L 2700 0 
Q 2613 175 2588 409 
z
M 2541 1666 
Q 2234 1541 1622 1453 
Q 1275 1403 1131 1340 
Q 988 1278 909 1158 
Q 831 1038 831 891 
Q 831 666 1001 516 
Q 1172 366 1500 366 
Q 1825 366 2078 508 
Q 2331 650 2450 897 
Q 2541 1088 2541 1459 
L 2541 1666 
z
" transform="scale(0.015625)"/>
       <path id="ArialMT-6c" d="M 409 0 
L 409 4581 
L 972 4581 
L 972 0 
L 409 0 
z
" transform="scale(0.015625)"/>
       <path id="ArialMT-73" d="M 197 991 
L 753 1078 
Q 800 744 1014 566 
Q 1228 388 1613 388 
Q 2000 388 2187 545 
Q 2375 703 2375 916 
Q 2375 1106 2209 1216 
Q 2094 1291 1634 1406 
Q 1016 1563 777 1677 
Q 538 1791 414 1992 
Q 291 2194 291 2438 
Q 291 2659 392 2848 
Q 494 3038 669 3163 
Q 800 3259 1026 3326 
Q 1253 3394 1513 3394 
Q 1903 3394 2198 3281 
Q 2494 3169 2634 2976 
Q 2775 2784 2828 2463 
L 2278 2388 
Q 2241 2644 2061 2787 
Q 1881 2931 1553 2931 
Q 1166 2931 1000 2803 
Q 834 2675 834 2503 
Q 834 2394 903 2306 
Q 972 2216 1119 2156 
Q 1203 2125 1616 2013 
Q 2213 1853 2448 1751 
Q 2684 1650 2818 1456 
Q 2953 1263 2953 975 
Q 2953 694 2789 445 
Q 2625 197 2315 61 
Q 2006 -75 1616 -75 
Q 969 -75 630 194 
Q 291 463 197 991 
z
" transform="scale(0.015625)"/>
       <path id="ArialMT-50" d="M 494 0 
L 494 4581 
L 2222 4581 
Q 2678 4581 2919 4538 
Q 3256 4481 3484 4323 
Q 3713 4166 3852 3881 
Q 3991 3597 3991 3256 
Q 3991 2672 3619 2267 
Q 3247 1863 2275 1863 
L 1100 1863 
L 1100 0 
L 494 0 
z
M 1100 2403 
L 2284 2403 
Q 2872 2403 3119 2622 
Q 3366 2841 3366 3238 
Q 3366 3525 3220 3729 
Q 3075 3934 2838 4000 
Q 2684 4041 2272 4041 
L 1100 4041 
L 1100 2403 
z
" transform="scale(0.015625)"/>
       <path id="ArialMT-6f" d="M 213 1659 
Q 213 2581 725 3025 
Q 1153 3394 1769 3394 
Q 2453 3394 2887 2945 
Q 3322 2497 3322 1706 
Q 3322 1066 3130 698 
Q 2938 331 2570 128 
Q 2203 -75 1769 -75 
Q 1072 -75 642 372 
Q 213 819 213 1659 
z
M 791 1659 
Q 791 1022 1069 705 
Q 1347 388 1769 388 
Q 2188 388 2466 706 
Q 2744 1025 2744 1678 
Q 2744 2294 2464 2611 
Q 2184 2928 1769 2928 
Q 1347 2928 1069 2612 
Q 791 2297 791 1659 
z
" transform="scale(0.015625)"/>
       <path id="ArialMT-76" d="M 1344 0 
L 81 3319 
L 675 3319 
L 1388 1331 
Q 1503 1009 1600 663 
Q 1675 925 1809 1294 
L 2547 3319 
L 3125 3319 
L 1869 0 
L 1344 0 
z
" transform="scale(0.015625)"/>
       <path id="ArialMT-52" d="M 503 0 
L 503 4581 
L 2534 4581 
Q 3147 4581 3465 4457 
Q 3784 4334 3975 4021 
Q 4166 3709 4166 3331 
Q 4166 2844 3850 2509 
Q 3534 2175 2875 2084 
Q 3116 1969 3241 1856 
Q 3506 1613 3744 1247 
L 4541 0 
L 3778 0 
L 3172 953 
Q 2906 1366 2734 1584 
Q 2563 1803 2427 1890 
Q 2291 1978 2150 2013 
Q 2047 2034 1813 2034 
L 1109 2034 
L 1109 0 
L 503 0 
z
M 1109 2559 
L 2413 2559 
Q 2828 2559 3062 2645 
Q 3297 2731 3419 2920 
Q 3541 3109 3541 3331 
Q 3541 3656 3305 3865 
Q 3069 4075 2559 4075 
L 1109 4075 
L 1109 2559 
z
" transform="scale(0.015625)"/>
       <path id="ArialMT-29" d="M 791 -1347 
L 388 -1347 
Q 1322 153 1322 1656 
Q 1322 2244 1188 2822 
Q 1081 3291 891 3722 
Q 769 4003 388 4659 
L 791 4659 
Q 1378 3875 1659 3084 
Q 1900 2403 1900 1659 
Q 1900 816 1576 28 
Q 1253 -759 791 -1347 
z
" transform="scale(0.015625)"/>
      </defs>
      <use xlink:href="#ArialMT-31"/>
      <use xlink:href="#ArialMT-20" x="55.615234"/>
      <use xlink:href="#ArialMT-2d" x="83.398438"/>
      <use xlink:href="#ArialMT-20" x="116.699219"/>
      <use xlink:href="#ArialMT-53" x="144.482422"/>
      <use xlink:href="#ArialMT-70" x="211.181641"/>
      <use xlink:href="#ArialMT-65" x="266.796875"/>
      <use xlink:href="#ArialMT-63" x="322.412109"/>
      <use xlink:href="#ArialMT-69" x="372.412109"/>
      <use xlink:href="#ArialMT-66" x="394.628906"/>
      <use xlink:href="#ArialMT-69" x="422.412109"/>
      <use xlink:href="#ArialMT-63" x="444.628906"/>
      <use xlink:href="#ArialMT-69" x="494.628906"/>
      <use xlink:href="#ArialMT-74" x="516.845703"/>
      <use xlink:href="#ArialMT-79" x="544.628906"/>
      <use xlink:href="#ArialMT-20" x="594.628906"/>
      <use xlink:href="#ArialMT-28" x="622.412109"/>
      <use xlink:href="#ArialMT-46" x="655.712891"/>
      <use xlink:href="#ArialMT-61" x="716.796875"/>
      <use xlink:href="#ArialMT-6c" x="772.412109"/>
      <use xlink:href="#ArialMT-73" x="794.628906"/>
      <use xlink:href="#ArialMT-65" x="844.628906"/>
      <use xlink:href="#ArialMT-20" x="900.244141"/>
      <use xlink:href="#ArialMT-50" x="928.027344"/>
      <use xlink:href="#ArialMT-6f" x="994.726562"/>
      <use xlink:href="#ArialMT-73" x="1050.341797"/>
      <use xlink:href="#ArialMT-69" x="1100.341797"/>
      <use xlink:href="#ArialMT-74" x="1122.558594"/>
      <use xlink:href="#ArialMT-69" x="1150.341797"/>
      <use xlink:href="#ArialMT-76" x="1172.558594"/>
      <use xlink:href="#ArialMT-65" x="1222.558594"/>
      <use xlink:href="#ArialMT-20" x="1278.173828"/>
      <use xlink:href="#ArialMT-52" x="1305.957031"/>
      <use xlink:href="#ArialMT-61" x="1378.173828"/>
      <use xlink:href="#ArialMT-74" x="1433.789062"/>
      <use xlink:href="#ArialMT-65" x="1461.572266"/>
      <use xlink:href="#ArialMT-29" x="1517.1875"/>
     </g>
    </g>
   </g>
   <g id="matplotlib.axis_2">
    <g id="ytick_1">
     <g id="line2d_7">
      <defs>
       <path id="mf5dcb3a24c" d="M 0 0 
L -3.5 0 
" style="stroke: #000000; stroke-width: 0.8"/>
      </defs>
      <g>
       <use xlink:href="#mf5dcb3a24c" x="44.425938" y="355.303594" style="stroke: #000000; stroke-width: 0.8"/>
      </g>
     </g>
     <g id="text_8">
      <!-- 0.0 -->
      <g transform="translate(21.522813 359.102812) scale(0.1 -0.1)">
       <use xlink:href="#DejaVuSans-30"/>
       <use xlink:href="#DejaVuSans-2e" x="63.623047"/>
       <use xlink:href="#DejaVuSans-30" x="95.410156"/>
      </g>
     </g>
    </g>
    <g id="ytick_2">
     <g id="line2d_8">
      <g>
       <use xlink:href="#mf5dcb3a24c" x="44.425938" y="291.943594" style="stroke: #000000; stroke-width: 0.8"/>
      </g>
     </g>
     <g id="text_9">
      <!-- 0.2 -->
      <g transform="translate(21.522813 295.742812) scale(0.1 -0.1)">
       <use xlink:href="#DejaVuSans-30"/>
       <use xlink:href="#DejaVuSans-2e" x="63.623047"/>
       <use xlink:href="#DejaVuSans-32" x="95.410156"/>
      </g>
     </g>
    </g>
    <g id="ytick_3">
     <g id="line2d_9">
      <g>
       <use xlink:href="#mf5dcb3a24c" x="44.425938" y="228.583594" style="stroke: #000000; stroke-width: 0.8"/>
      </g>
     </g>
     <g id="text_10">
      <!-- 0.4 -->
      <g transform="translate(21.522813 232.382812) scale(0.1 -0.1)">
       <use xlink:href="#DejaVuSans-30"/>
       <use xlink:href="#DejaVuSans-2e" x="63.623047"/>
       <use xlink:href="#DejaVuSans-34" x="95.410156"/>
      </g>
     </g>
    </g>
    <g id="ytick_4">
     <g id="line2d_10">
      <g>
       <use xlink:href="#mf5dcb3a24c" x="44.425938" y="165.223594" style="stroke: #000000; stroke-width: 0.8"/>
      </g>
     </g>
     <g id="text_11">
      <!-- 0.6 -->
      <g transform="translate(21.522813 169.022812) scale(0.1 -0.1)">
       <use xlink:href="#DejaVuSans-30"/>
       <use xlink:href="#DejaVuSans-2e" x="63.623047"/>
       <use xlink:href="#DejaVuSans-36" x="95.410156"/>
      </g>
     </g>
    </g>
    <g id="ytick_5">
     <g id="line2d_11">
      <g>
       <use xlink:href="#mf5dcb3a24c" x="44.425938" y="101.863594" style="stroke: #000000; stroke-width: 0.8"/>
      </g>
     </g>
     <g id="text_12">
      <!-- 0.8 -->
      <g transform="translate(21.522813 105.662812) scale(0.1 -0.1)">
       <use xlink:href="#DejaVuSans-30"/>
       <use xlink:href="#DejaVuSans-2e" x="63.623047"/>
       <use xlink:href="#DejaVuSans-38" x="95.410156"/>
      </g>
     </g>
    </g>
    <g id="ytick_6">
     <g id="line2d_12">
      <g>
       <use xlink:href="#mf5dcb3a24c" x="44.425938" y="38.503594" style="stroke: #000000; stroke-width: 0.8"/>
      </g>
     </g>
     <g id="text_13">
      <!-- 1.0 -->
      <g transform="translate(21.522813 42.302812) scale(0.1 -0.1)">
       <use xlink:href="#DejaVuSans-31"/>
       <use xlink:href="#DejaVuSans-2e" x="63.623047"/>
       <use xlink:href="#DejaVuSans-30" x="95.410156"/>
      </g>
     </g>
    </g>
    <g id="text_14">
     <!-- Sensitivity (True Positive Rate) -->
     <g transform="translate(15.207656 263.964062) rotate(-90) scale(0.11 -0.11)">
      <defs>
       <path id="ArialMT-6e" d="M 422 0 
L 422 3319 
L 928 3319 
L 928 2847 
Q 1294 3394 1984 3394 
Q 2284 3394 2536 3286 
Q 2788 3178 2913 3003 
Q 3038 2828 3088 2588 
Q 3119 2431 3119 2041 
L 3119 0 
L 2556 0 
L 2556 2019 
Q 2556 2363 2490 2533 
Q 2425 2703 2258 2804 
Q 2091 2906 1866 2906 
Q 1506 2906 1245 2678 
Q 984 2450 984 1813 
L 984 0 
L 422 0 
z
" transform="scale(0.015625)"/>
       <path id="ArialMT-54" d="M 1659 0 
L 1659 4041 
L 150 4041 
L 150 4581 
L 3781 4581 
L 3781 4041 
L 2266 4041 
L 2266 0 
L 1659 0 
z
" transform="scale(0.015625)"/>
       <path id="ArialMT-72" d="M 416 0 
L 416 3319 
L 922 3319 
L 922 2816 
Q 1116 3169 1280 3281 
Q 1444 3394 1641 3394 
Q 1925 3394 2219 3213 
L 2025 2691 
Q 1819 2813 1613 2813 
Q 1428 2813 1281 2702 
Q 1134 2591 1072 2394 
Q 978 2094 978 1738 
L 978 0 
L 416 0 
z
" transform="scale(0.015625)"/>
       <path id="ArialMT-75" d="M 2597 0 
L 2597 488 
Q 2209 -75 1544 -75 
Q 1250 -75 995 37 
Q 741 150 617 320 
Q 494 491 444 738 
Q 409 903 409 1263 
L 409 3319 
L 972 3319 
L 972 1478 
Q 972 1038 1006 884 
Q 1059 663 1231 536 
Q 1403 409 1656 409 
Q 1909 409 2131 539 
Q 2353 669 2445 892 
Q 2538 1116 2538 1541 
L 2538 3319 
L 3100 3319 
L 3100 0 
L 2597 0 
z
" transform="scale(0.015625)"/>
      </defs>
      <use xlink:href="#ArialMT-53"/>
      <use xlink:href="#ArialMT-65" x="66.699219"/>
      <use xlink:href="#ArialMT-6e" x="122.314453"/>
      <use xlink:href="#ArialMT-73" x="177.929688"/>
      <use xlink:href="#ArialMT-69" x="227.929688"/>
      <use xlink:href="#ArialMT-74" x="250.146484"/>
      <use xlink:href="#ArialMT-69" x="277.929688"/>
      <use xlink:href="#ArialMT-76" x="300.146484"/>
      <use xlink:href="#ArialMT-69" x="350.146484"/>
      <use xlink:href="#ArialMT-74" x="372.363281"/>
      <use xlink:href="#ArialMT-79" x="400.146484"/>
      <use xlink:href="#ArialMT-20" x="450.146484"/>
      <use xlink:href="#ArialMT-28" x="477.929688"/>
      <use xlink:href="#ArialMT-54" x="511.230469"/>
      <use xlink:href="#ArialMT-72" x="568.564453"/>
      <use xlink:href="#ArialMT-75" x="601.865234"/>
      <use xlink:href="#ArialMT-65" x="657.480469"/>
      <use xlink:href="#ArialMT-20" x="713.095703"/>
      <use xlink:href="#ArialMT-50" x="740.878906"/>
      <use xlink:href="#ArialMT-6f" x="807.578125"/>
      <use xlink:href="#ArialMT-73" x="863.193359"/>
      <use xlink:href="#ArialMT-69" x="913.193359"/>
      <use xlink:href="#ArialMT-74" x="935.410156"/>
      <use xlink:href="#ArialMT-69" x="963.193359"/>
      <use xlink:href="#ArialMT-76" x="985.410156"/>
      <use xlink:href="#ArialMT-65" x="1035.410156"/>
      <use xlink:href="#ArialMT-20" x="1091.025391"/>
      <use xlink:href="#ArialMT-52" x="1118.808594"/>
      <use xlink:href="#ArialMT-61" x="1191.025391"/>
      <use xlink:href="#ArialMT-74" x="1246.640625"/>
      <use xlink:href="#ArialMT-65" x="1274.423828"/>
      <use xlink:href="#ArialMT-29" x="1330.039062"/>
     </g>
    </g>
   </g>
   <g id="line2d_13">
    <path d="M 44.425938 355.303594 
L 44.425938 332.734728 
L 45.60689 332.734728 
L 45.60689 304.314676 
L 46.787842 304.314676 
L 46.787842 287.596997 
L 49.149747 287.596997 
L 49.149747 280.074042 
L 50.330699 280.074042 
L 50.330699 270.043435 
L 51.511652 270.043435 
L 51.511652 255.833409 
L 52.692604 255.833409 
L 52.692604 248.310454 
L 53.873557 248.310454 
L 53.873557 237.443963 
L 55.054509 237.443963 
L 55.054509 235.772195 
L 56.235461 235.772195 
L 56.235461 232.42866 
L 57.416414 232.42866 
L 57.416414 229.085124 
L 58.597366 229.085124 
L 58.597366 227.413356 
L 63.321176 227.413356 
L 63.321176 225.741588 
L 64.502128 225.741588 
L 64.502128 221.562169 
L 66.864033 221.562169 
L 66.864033 215.710982 
L 68.044985 215.710982 
L 68.044985 210.695678 
L 69.225938 210.695678 
L 69.225938 209.02391 
L 70.40689 209.02391 
L 70.40689 204.844491 
L 71.587842 204.844491 
L 71.587842 201.500955 
L 72.768795 201.500955 
L 72.768795 195.649768 
L 73.949747 195.649768 
L 73.949747 193.978 
L 75.130699 193.978 
L 75.130699 184.783277 
L 76.311652 184.783277 
L 76.311652 183.111509 
L 77.492604 183.111509 
L 77.492604 179.767974 
L 78.673557 179.767974 
L 78.673557 178.93209 
L 81.035461 178.93209 
L 81.035461 173.916786 
L 83.397366 173.916786 
L 83.397366 172.245019 
L 84.578318 172.245019 
L 84.578318 168.901483 
L 88.121176 168.901483 
L 88.121176 167.229715 
L 91.664033 167.229715 
L 91.664033 165.557947 
L 92.844985 165.557947 
L 92.844985 163.88618 
L 94.025938 163.88618 
L 94.025938 156.363224 
L 95.20689 156.363224 
L 95.20689 154.691457 
L 96.387842 154.691457 
L 96.387842 152.183805 
L 97.568795 152.183805 
L 97.568795 151.347921 
L 98.749747 151.347921 
L 98.749747 150.512037 
L 102.292604 150.512037 
L 102.292604 149.676153 
L 103.473557 149.676153 
L 103.473557 148.840269 
L 104.654509 148.840269 
L 104.654509 148.004385 
L 105.835461 148.004385 
L 105.835461 145.496734 
L 107.016414 145.496734 
L 107.016414 144.66085 
L 108.197366 144.66085 
L 108.197366 143.824966 
L 111.740223 143.824966 
L 111.740223 138.809662 
L 112.921176 138.809662 
L 112.921176 137.973778 
L 116.464033 137.973778 
L 116.464033 136.302011 
L 117.644985 136.302011 
L 117.644985 134.630243 
L 120.00689 134.630243 
L 120.00689 133.794359 
L 122.368795 133.794359 
L 122.368795 131.286707 
L 125.911652 131.286707 
L 125.911652 128.779055 
L 127.092604 128.779055 
L 127.092604 127.107288 
L 128.273557 127.107288 
L 128.273557 126.271404 
L 129.454509 126.271404 
L 129.454509 124.599636 
L 130.635461 124.599636 
L 130.635461 123.763752 
L 131.816414 123.763752 
L 131.816414 122.927868 
L 132.997366 122.927868 
L 132.997366 122.091984 
L 134.178318 122.091984 
L 134.178318 119.584333 
L 137.721176 119.584333 
L 137.721176 118.748449 
L 140.08308 118.748449 
L 140.08308 117.912565 
L 144.80689 117.912565 
L 144.80689 117.076681 
L 145.987842 117.076681 
L 145.987842 116.240797 
L 147.168795 116.240797 
L 147.168795 115.404913 
L 150.711652 115.404913 
L 150.711652 113.733145 
L 153.073557 113.733145 
L 153.073557 112.061377 
L 156.616414 112.061377 
L 156.616414 110.38961 
L 157.797366 110.38961 
L 157.797366 109.553726 
L 161.340223 109.553726 
L 161.340223 108.717842 
L 168.425938 108.717842 
L 168.425938 107.881958 
L 170.787842 107.881958 
L 170.787842 107.046074 
L 171.968795 107.046074 
L 171.968795 106.21019 
L 175.511652 106.21019 
L 175.511652 105.374306 
L 176.692604 105.374306 
L 176.692604 104.538422 
L 181.416414 104.538422 
L 181.416414 103.702538 
L 183.778318 103.702538 
L 183.778318 102.866654 
L 184.959271 102.866654 
L 184.959271 101.194887 
L 186.140223 101.194887 
L 186.140223 100.359003 
L 189.68308 100.359003 
L 189.68308 99.523119 
L 192.044985 99.523119 
L 192.044985 97.015467 
L 197.949747 97.015467 
L 197.949747 92.836048 
L 199.130699 92.836048 
L 199.130699 91.16428 
L 206.216414 91.16428 
L 206.216414 90.328396 
L 208.578318 90.328396 
L 208.578318 89.492512 
L 210.940223 89.492512 
L 210.940223 88.656628 
L 215.664033 88.656628 
L 215.664033 87.820744 
L 218.025937 87.820744 
L 218.025937 86.148976 
L 219.20689 86.148976 
L 219.20689 84.477209 
L 222.749747 84.477209 
L 222.749747 83.641325 
L 234.559271 83.641325 
L 234.559271 82.805441 
L 235.740223 82.805441 
L 235.740223 81.969557 
L 241.644985 81.969557 
L 241.644985 79.461905 
L 247.549747 79.461905 
L 247.549747 77.790137 
L 248.730699 77.790137 
L 248.730699 76.118369 
L 254.635461 76.118369 
L 254.635461 75.282486 
L 258.178318 75.282486 
L 258.178318 73.610718 
L 260.540223 73.610718 
L 260.540223 72.774834 
L 262.902128 72.774834 
L 262.902128 71.103066 
L 274.711652 71.103066 
L 274.711652 70.267182 
L 279.435461 70.267182 
L 279.435461 69.431298 
L 282.978318 69.431298 
L 282.978318 68.595414 
L 286.521176 68.595414 
L 286.521176 67.75953 
L 291.244985 67.75953 
L 291.244985 66.087763 
L 295.968795 66.087763 
L 295.968795 65.251879 
L 300.692604 65.251879 
L 300.692604 63.580111 
L 305.416414 63.580111 
L 305.416414 62.744227 
L 306.597366 62.744227 
L 306.597366 61.908343 
L 310.140223 61.908343 
L 310.140223 61.072459 
L 314.864033 61.072459 
L 314.864033 60.236575 
L 316.044985 60.236575 
L 316.044985 59.400691 
L 325.492604 59.400691 
L 325.492604 58.564807 
L 326.673557 58.564807 
L 326.673557 57.728924 
L 329.035461 57.728924 
L 329.035461 56.89304 
L 333.759271 56.89304 
L 333.759271 55.221272 
L 334.940223 55.221272 
L 334.940223 54.385388 
L 347.930699 54.385388 
L 347.930699 53.549504 
L 349.111652 53.549504 
L 349.111652 52.71362 
L 350.292604 52.71362 
L 350.292604 51.877736 
L 351.473557 51.877736 
L 351.473557 51.041852 
L 352.654509 51.041852 
L 352.654509 48.534201 
L 353.835461 48.534201 
L 353.835461 46.862433 
L 360.921176 46.862433 
L 360.921176 46.026549 
L 372.730699 46.026549 
L 372.730699 45.190665 
L 375.092604 45.190665 
L 375.092604 44.354781 
L 378.635461 44.354781 
L 378.635461 43.518897 
L 402.254509 43.518897 
L 402.254509 42.683013 
L 412.88308 42.683013 
L 412.88308 41.847129 
L 440.044985 41.847129 
L 440.044985 41.011245 
L 462.48308 41.011245 
L 462.48308 40.175362 
L 470.749747 40.175362 
L 470.749747 39.339478 
L 474.292604 39.339478 
L 474.292604 38.503594 
L 490.825938 38.503594 
L 490.825938 38.503594 
" clip-path="url(#p8c7d267e42)" style="fill: none; stroke: #4169e1; stroke-width: 2; stroke-linecap: square"/>
   </g>
   <g id="line2d_14">
    <path d="M 44.425938 355.303594 
L 44.425938 323.540005 
L 45.60689 323.540005 
L 45.60689 312.673515 
L 46.787842 312.673515 
L 46.787842 307.658211 
L 47.968795 307.658211 
L 47.968795 295.119953 
L 49.149747 295.119953 
L 49.149747 277.566391 
L 50.330699 277.566391 
L 50.330699 254.161641 
L 52.692604 254.161641 
L 52.692604 250.818106 
L 53.873557 250.818106 
L 53.873557 241.623383 
L 57.416414 241.623383 
L 57.416414 235.772195 
L 58.597366 235.772195 
L 58.597366 232.42866 
L 59.778318 232.42866 
L 59.778318 230.756892 
L 62.140223 230.756892 
L 62.140223 228.24924 
L 63.321176 228.24924 
L 63.321176 227.413356 
L 64.502128 227.413356 
L 64.502128 224.905705 
L 66.864033 224.905705 
L 66.864033 222.398053 
L 68.044985 222.398053 
L 68.044985 216.546866 
L 69.225938 216.546866 
L 69.225938 204.844491 
L 70.40689 204.844491 
L 70.40689 199.829187 
L 71.587842 199.829187 
L 71.587842 197.321536 
L 73.949747 197.321536 
L 73.949747 192.306232 
L 75.130699 192.306232 
L 75.130699 190.634464 
L 76.311652 190.634464 
L 76.311652 188.962697 
L 78.673557 188.962697 
L 78.673557 185.619161 
L 79.854509 185.619161 
L 79.854509 178.93209 
L 81.035461 178.93209 
L 81.035461 174.75267 
L 82.216414 174.75267 
L 82.216414 168.901483 
L 83.397366 168.901483 
L 83.397366 167.229715 
L 84.578318 167.229715 
L 84.578318 162.214412 
L 85.759271 162.214412 
L 85.759271 161.378528 
L 86.940223 161.378528 
L 86.940223 160.542644 
L 88.121176 160.542644 
L 88.121176 157.199108 
L 90.48308 157.199108 
L 90.48308 155.52734 
L 91.664033 155.52734 
L 91.664033 153.019689 
L 92.844985 153.019689 
L 92.844985 149.676153 
L 95.20689 149.676153 
L 95.20689 148.840269 
L 99.930699 148.840269 
L 99.930699 148.004385 
L 102.292604 148.004385 
L 102.292604 147.168501 
L 104.654509 147.168501 
L 104.654509 140.48143 
L 107.016414 140.48143 
L 107.016414 139.645546 
L 108.197366 139.645546 
L 108.197366 137.137895 
L 109.378318 137.137895 
L 109.378318 132.958475 
L 110.559271 132.958475 
L 110.559271 131.286707 
L 111.740223 131.286707 
L 111.740223 130.450823 
L 112.921176 130.450823 
L 112.921176 128.779055 
L 115.28308 128.779055 
L 115.28308 126.271404 
L 120.00689 126.271404 
L 120.00689 125.43552 
L 121.187842 125.43552 
L 121.187842 124.599636 
L 125.911652 124.599636 
L 125.911652 122.927868 
L 128.273557 122.927868 
L 128.273557 122.091984 
L 129.454509 122.091984 
L 129.454509 121.2561 
L 130.635461 121.2561 
L 130.635461 117.912565 
L 131.816414 117.912565 
L 131.816414 117.076681 
L 132.997366 117.076681 
L 132.997366 113.733145 
L 134.178318 113.733145 
L 134.178318 112.897261 
L 141.264033 112.897261 
L 141.264033 112.061377 
L 142.444985 112.061377 
L 142.444985 110.38961 
L 145.987842 110.38961 
L 145.987842 109.553726 
L 149.530699 109.553726 
L 149.530699 108.717842 
L 158.978318 108.717842 
L 158.978318 107.881958 
L 160.159271 107.881958 
L 160.159271 106.21019 
L 163.702128 106.21019 
L 163.702128 104.538422 
L 166.064033 104.538422 
L 166.064033 103.702538 
L 167.244985 103.702538 
L 167.244985 102.866654 
L 169.60689 102.866654 
L 169.60689 102.030771 
L 173.149747 102.030771 
L 173.149747 99.523119 
L 175.511652 99.523119 
L 175.511652 98.687235 
L 177.873557 98.687235 
L 177.873557 97.015467 
L 179.054509 97.015467 
L 179.054509 96.179583 
L 180.235461 96.179583 
L 180.235461 94.507815 
L 182.597366 94.507815 
L 182.597366 93.671931 
L 184.959271 93.671931 
L 184.959271 92.836048 
L 187.321176 92.836048 
L 187.321176 91.16428 
L 189.68308 91.16428 
L 189.68308 89.492512 
L 190.864033 89.492512 
L 190.864033 87.820744 
L 192.044985 87.820744 
L 192.044985 86.98486 
L 194.40689 86.98486 
L 194.40689 86.148976 
L 201.492604 86.148976 
L 201.492604 85.313092 
L 208.578318 85.313092 
L 208.578318 83.641325 
L 209.759271 83.641325 
L 209.759271 82.805441 
L 214.48308 82.805441 
L 214.48308 81.969557 
L 215.664033 81.969557 
L 215.664033 81.133673 
L 223.930699 81.133673 
L 223.930699 80.297789 
L 225.111652 80.297789 
L 225.111652 79.461905 
L 232.197366 79.461905 
L 232.197366 78.626021 
L 233.378318 78.626021 
L 233.378318 77.790137 
L 239.28308 77.790137 
L 239.28308 76.954253 
L 245.187842 76.954253 
L 245.187842 76.118369 
L 246.368795 76.118369 
L 246.368795 75.282486 
L 258.178318 75.282486 
L 258.178318 74.446602 
L 259.359271 74.446602 
L 259.359271 73.610718 
L 262.902128 73.610718 
L 262.902128 71.93895 
L 268.80689 71.93895 
L 268.80689 70.267182 
L 271.168795 70.267182 
L 271.168795 69.431298 
L 273.530699 69.431298 
L 273.530699 66.923647 
L 275.892604 66.923647 
L 275.892604 66.087763 
L 278.254509 66.087763 
L 278.254509 65.251879 
L 279.435461 65.251879 
L 279.435461 63.580111 
L 281.797366 63.580111 
L 281.797366 62.744227 
L 288.88308 62.744227 
L 288.88308 61.908343 
L 305.416414 61.908343 
L 305.416414 61.072459 
L 308.959271 61.072459 
L 308.959271 60.236575 
L 310.140223 60.236575 
L 310.140223 59.400691 
L 314.864033 59.400691 
L 314.864033 57.728924 
L 325.492604 57.728924 
L 325.492604 56.057156 
L 329.035461 56.057156 
L 329.035461 55.221272 
L 340.844985 55.221272 
L 340.844985 54.385388 
L 344.387842 54.385388 
L 344.387842 52.71362 
L 352.654509 52.71362 
L 352.654509 51.877736 
L 364.464033 51.877736 
L 364.464033 51.041852 
L 366.825938 51.041852 
L 366.825938 50.205968 
L 369.187842 50.205968 
L 369.187842 49.370085 
L 370.368795 49.370085 
L 370.368795 48.534201 
L 386.902128 48.534201 
L 386.902128 47.698317 
L 389.264033 47.698317 
L 389.264033 46.862433 
L 392.80689 46.862433 
L 392.80689 44.354781 
L 402.254509 44.354781 
L 402.254509 43.518897 
L 412.88308 43.518897 
L 412.88308 42.683013 
L 416.425938 42.683013 
L 416.425938 41.011245 
L 449.492604 41.011245 
L 449.492604 40.175362 
L 450.673557 40.175362 
L 450.673557 39.339478 
L 471.930699 39.339478 
L 471.930699 38.503594 
L 490.825938 38.503594 
L 490.825938 38.503594 
" clip-path="url(#p8c7d267e42)" style="fill: none; stroke: #ff8c00; stroke-width: 2; stroke-linecap: square"/>
   </g>
   <g id="line2d_15">
    <path d="M 44.425938 355.303594 
L 44.425938 316.01705 
L 45.60689 316.01705 
L 45.60689 305.150559 
L 46.787842 305.150559 
L 46.787842 288.432881 
L 47.968795 288.432881 
L 47.968795 279.238158 
L 49.149747 279.238158 
L 49.149747 265.028132 
L 50.330699 265.028132 
L 50.330699 263.356364 
L 51.511652 263.356364 
L 51.511652 251.65399 
L 52.692604 251.65399 
L 52.692604 248.310454 
L 53.873557 248.310454 
L 53.873557 243.29515 
L 55.054509 243.29515 
L 55.054509 234.100428 
L 56.235461 234.100428 
L 56.235461 226.577472 
L 57.416414 226.577472 
L 57.416414 219.890401 
L 58.597366 219.890401 
L 58.597366 214.875098 
L 59.778318 214.875098 
L 59.778318 210.695678 
L 62.140223 210.695678 
L 62.140223 207.352143 
L 63.321176 207.352143 
L 63.321176 204.844491 
L 64.502128 204.844491 
L 64.502128 198.993304 
L 65.68308 198.993304 
L 65.68308 198.15742 
L 69.225938 198.15742 
L 69.225938 193.142116 
L 70.40689 193.142116 
L 70.40689 188.126813 
L 71.587842 188.126813 
L 71.587842 187.290929 
L 72.768795 187.290929 
L 72.768795 185.619161 
L 73.949747 185.619161 
L 73.949747 183.947393 
L 75.130699 183.947393 
L 75.130699 179.767974 
L 76.311652 179.767974 
L 76.311652 175.588554 
L 79.854509 175.588554 
L 79.854509 172.245019 
L 81.035461 172.245019 
L 81.035461 164.722063 
L 82.216414 164.722063 
L 82.216414 160.542644 
L 83.397366 160.542644 
L 83.397366 157.199108 
L 86.940223 157.199108 
L 86.940223 150.512037 
L 88.121176 150.512037 
L 88.121176 143.824966 
L 89.302128 143.824966 
L 89.302128 142.153198 
L 91.664033 142.153198 
L 91.664033 141.317314 
L 92.844985 141.317314 
L 92.844985 139.645546 
L 95.20689 139.645546 
L 95.20689 137.973778 
L 96.387842 137.973778 
L 96.387842 135.466127 
L 97.568795 135.466127 
L 97.568795 134.630243 
L 99.930699 134.630243 
L 99.930699 132.122591 
L 101.111652 132.122591 
L 101.111652 131.286707 
L 102.292604 131.286707 
L 102.292604 129.614939 
L 103.473557 129.614939 
L 103.473557 122.927868 
L 105.835461 122.927868 
L 105.835461 122.091984 
L 107.016414 122.091984 
L 107.016414 121.2561 
L 109.378318 121.2561 
L 109.378318 120.420216 
L 110.559271 120.420216 
L 110.559271 117.912565 
L 111.740223 117.912565 
L 111.740223 117.076681 
L 112.921176 117.076681 
L 112.921176 116.240797 
L 114.102128 116.240797 
L 114.102128 115.404913 
L 117.644985 115.404913 
L 117.644985 113.733145 
L 118.825938 113.733145 
L 118.825938 112.897261 
L 122.368795 112.897261 
L 122.368795 112.061377 
L 123.549747 112.061377 
L 123.549747 111.225493 
L 124.730699 111.225493 
L 124.730699 110.38961 
L 127.092604 110.38961 
L 127.092604 108.717842 
L 129.454509 108.717842 
L 129.454509 106.21019 
L 130.635461 106.21019 
L 130.635461 105.374306 
L 132.997366 105.374306 
L 132.997366 103.702538 
L 134.178318 103.702538 
L 134.178318 102.866654 
L 140.08308 102.866654 
L 140.08308 102.030771 
L 141.264033 102.030771 
L 141.264033 101.194887 
L 151.892604 101.194887 
L 151.892604 100.359003 
L 154.254509 100.359003 
L 154.254509 98.687235 
L 158.978318 98.687235 
L 158.978318 97.851351 
L 160.159271 97.851351 
L 160.159271 97.015467 
L 162.521176 97.015467 
L 162.521176 96.179583 
L 163.702128 96.179583 
L 163.702128 94.507815 
L 164.88308 94.507815 
L 164.88308 93.671931 
L 167.244985 93.671931 
L 167.244985 92.000164 
L 169.60689 92.000164 
L 169.60689 89.492512 
L 174.330699 89.492512 
L 174.330699 88.656628 
L 175.511652 88.656628 
L 175.511652 87.820744 
L 184.959271 87.820744 
L 184.959271 86.98486 
L 186.140223 86.98486 
L 186.140223 86.148976 
L 187.321176 86.148976 
L 187.321176 85.313092 
L 192.044985 85.313092 
L 192.044985 82.805441 
L 199.130699 82.805441 
L 199.130699 78.626021 
L 201.492604 78.626021 
L 201.492604 77.790137 
L 206.216414 77.790137 
L 206.216414 76.954253 
L 210.940223 76.954253 
L 210.940223 76.118369 
L 213.302128 76.118369 
L 213.302128 75.282486 
L 218.025937 75.282486 
L 218.025937 73.610718 
L 227.473557 73.610718 
L 227.473557 72.774834 
L 228.654509 72.774834 
L 228.654509 71.93895 
L 229.835461 71.93895 
L 229.835461 69.431298 
L 236.921176 69.431298 
L 236.921176 67.75953 
L 245.187842 67.75953 
L 245.187842 66.923647 
L 247.549747 66.923647 
L 247.549747 66.087763 
L 248.730699 66.087763 
L 248.730699 65.251879 
L 254.635461 65.251879 
L 254.635461 64.415995 
L 259.359271 64.415995 
L 259.359271 63.580111 
L 260.540223 63.580111 
L 260.540223 62.744227 
L 266.444985 62.744227 
L 266.444985 61.072459 
L 275.892604 61.072459 
L 275.892604 60.236575 
L 277.073557 60.236575 
L 277.073557 59.400691 
L 281.797366 59.400691 
L 281.797366 58.564807 
L 284.159271 58.564807 
L 284.159271 57.728924 
L 285.340223 57.728924 
L 285.340223 56.89304 
L 287.702128 56.89304 
L 287.702128 56.057156 
L 290.064033 56.057156 
L 290.064033 53.549504 
L 297.149747 53.549504 
L 297.149747 52.71362 
L 304.235461 52.71362 
L 304.235461 51.877736 
L 311.321176 51.877736 
L 311.321176 51.041852 
L 313.68308 51.041852 
L 313.68308 50.205968 
L 314.864033 50.205968 
L 314.864033 47.698317 
L 356.197366 47.698317 
L 356.197366 46.862433 
L 359.740223 46.862433 
L 359.740223 45.190665 
L 366.825938 45.190665 
L 366.825938 44.354781 
L 382.178318 44.354781 
L 382.178318 43.518897 
L 384.540223 43.518897 
L 384.540223 42.683013 
L 402.254509 42.683013 
L 402.254509 41.847129 
L 411.702128 41.847129 
L 411.702128 41.011245 
L 427.054509 41.011245 
L 427.054509 40.175362 
L 430.597366 40.175362 
L 430.597366 39.339478 
L 460.121176 39.339478 
L 460.121176 38.503594 
L 490.825938 38.503594 
L 490.825938 38.503594 
" clip-path="url(#p8c7d267e42)" style="fill: none; stroke: #228b22; stroke-width: 2; stroke-linecap: square"/>
   </g>
   <g id="line2d_16">
    <path d="M 44.425938 355.303594 
L 490.825938 38.503594 
" clip-path="url(#p8c7d267e42)" style="fill: none; stroke-dasharray: 7.4,3.2; stroke-dashoffset: 0; stroke: #000080; stroke-width: 2"/>
   </g>
   <g id="patch_3">
    <path d="M 44.425938 355.303594 
L 44.425938 22.663594 
" style="fill: none; stroke: #000000; stroke-width: 0.8; stroke-linejoin: miter; stroke-linecap: square"/>
   </g>
   <g id="patch_4">
    <path d="M 490.825938 355.303594 
L 490.825938 22.663594 
" style="fill: none; stroke: #000000; stroke-width: 0.8; stroke-linejoin: miter; stroke-linecap: square"/>
   </g>
   <g id="patch_5">
    <path d="M 44.425938 355.303594 
L 490.825938 355.303594 
" style="fill: none; stroke: #000000; stroke-width: 0.8; stroke-linejoin: miter; stroke-linecap: square"/>
   </g>
   <g id="patch_6">
    <path d="M 44.425938 22.663594 
L 490.825938 22.663594 
" style="fill: none; stroke: #000000; stroke-width: 0.8; stroke-linejoin: miter; stroke-linecap: square"/>
   </g>
   <g id="text_15">
    <!-- ROC Curves under Independent Test(Fusion feature) -->
    <g transform="translate(105.239688 16.663594) scale(0.13 -0.13)">
     <defs>
      <path id="Arial-BoldMT-52" d="M 469 0 
L 469 4581 
L 2416 4581 
Q 3150 4581 3483 4457 
Q 3816 4334 4016 4018 
Q 4216 3703 4216 3297 
Q 4216 2781 3912 2445 
Q 3609 2109 3006 2022 
Q 3306 1847 3501 1637 
Q 3697 1428 4028 894 
L 4588 0 
L 3481 0 
L 2813 997 
Q 2456 1531 2325 1670 
Q 2194 1809 2047 1861 
Q 1900 1913 1581 1913 
L 1394 1913 
L 1394 0 
L 469 0 
z
M 1394 2644 
L 2078 2644 
Q 2744 2644 2909 2700 
Q 3075 2756 3169 2893 
Q 3263 3031 3263 3238 
Q 3263 3469 3139 3611 
Q 3016 3753 2791 3791 
Q 2678 3806 2116 3806 
L 1394 3806 
L 1394 2644 
z
" transform="scale(0.015625)"/>
      <path id="Arial-BoldMT-4f" d="M 278 2263 
Q 278 2963 488 3438 
Q 644 3788 914 4066 
Q 1184 4344 1506 4478 
Q 1934 4659 2494 4659 
Q 3506 4659 4114 4031 
Q 4722 3403 4722 2284 
Q 4722 1175 4119 548 
Q 3516 -78 2506 -78 
Q 1484 -78 881 545 
Q 278 1169 278 2263 
z
M 1231 2294 
Q 1231 1516 1590 1114 
Q 1950 713 2503 713 
Q 3056 713 3411 1111 
Q 3766 1509 3766 2306 
Q 3766 3094 3420 3481 
Q 3075 3869 2503 3869 
Q 1931 3869 1581 3476 
Q 1231 3084 1231 2294 
z
" transform="scale(0.015625)"/>
      <path id="Arial-BoldMT-43" d="M 3397 1684 
L 4294 1400 
Q 4088 650 3608 286 
Q 3128 -78 2391 -78 
Q 1478 -78 890 545 
Q 303 1169 303 2250 
Q 303 3394 893 4026 
Q 1484 4659 2447 4659 
Q 3288 4659 3813 4163 
Q 4125 3869 4281 3319 
L 3366 3100 
Q 3284 3456 3026 3662 
Q 2769 3869 2400 3869 
Q 1891 3869 1573 3503 
Q 1256 3138 1256 2319 
Q 1256 1450 1568 1081 
Q 1881 713 2381 713 
Q 2750 713 3015 947 
Q 3281 1181 3397 1684 
z
" transform="scale(0.015625)"/>
      <path id="Arial-BoldMT-20" transform="scale(0.015625)"/>
      <path id="Arial-BoldMT-75" d="M 2644 0 
L 2644 497 
Q 2463 231 2167 78 
Q 1872 -75 1544 -75 
Q 1209 -75 943 72 
Q 678 219 559 484 
Q 441 750 441 1219 
L 441 3319 
L 1319 3319 
L 1319 1794 
Q 1319 1094 1367 936 
Q 1416 778 1544 686 
Q 1672 594 1869 594 
Q 2094 594 2272 717 
Q 2450 841 2515 1023 
Q 2581 1206 2581 1919 
L 2581 3319 
L 3459 3319 
L 3459 0 
L 2644 0 
z
" transform="scale(0.015625)"/>
      <path id="Arial-BoldMT-72" d="M 1300 0 
L 422 0 
L 422 3319 
L 1238 3319 
L 1238 2847 
Q 1447 3181 1614 3287 
Q 1781 3394 1994 3394 
Q 2294 3394 2572 3228 
L 2300 2463 
Q 2078 2606 1888 2606 
Q 1703 2606 1575 2504 
Q 1447 2403 1373 2137 
Q 1300 1872 1300 1025 
L 1300 0 
z
" transform="scale(0.015625)"/>
      <path id="Arial-BoldMT-76" d="M 1372 0 
L 34 3319 
L 956 3319 
L 1581 1625 
L 1763 1059 
Q 1834 1275 1853 1344 
Q 1897 1484 1947 1625 
L 2578 3319 
L 3481 3319 
L 2163 0 
L 1372 0 
z
" transform="scale(0.015625)"/>
      <path id="Arial-BoldMT-65" d="M 2381 1056 
L 3256 909 
Q 3088 428 2723 176 
Q 2359 -75 1813 -75 
Q 947 -75 531 491 
Q 203 944 203 1634 
Q 203 2459 634 2926 
Q 1066 3394 1725 3394 
Q 2466 3394 2894 2905 
Q 3322 2416 3303 1406 
L 1103 1406 
Q 1113 1016 1316 798 
Q 1519 581 1822 581 
Q 2028 581 2168 693 
Q 2309 806 2381 1056 
z
M 2431 1944 
Q 2422 2325 2234 2523 
Q 2047 2722 1778 2722 
Q 1491 2722 1303 2513 
Q 1116 2303 1119 1944 
L 2431 1944 
z
" transform="scale(0.015625)"/>
      <path id="Arial-BoldMT-73" d="M 150 947 
L 1031 1081 
Q 1088 825 1259 692 
Q 1431 559 1741 559 
Q 2081 559 2253 684 
Q 2369 772 2369 919 
Q 2369 1019 2306 1084 
Q 2241 1147 2013 1200 
Q 950 1434 666 1628 
Q 272 1897 272 2375 
Q 272 2806 612 3100 
Q 953 3394 1669 3394 
Q 2350 3394 2681 3172 
Q 3013 2950 3138 2516 
L 2309 2363 
Q 2256 2556 2107 2659 
Q 1959 2763 1684 2763 
Q 1338 2763 1188 2666 
Q 1088 2597 1088 2488 
Q 1088 2394 1175 2328 
Q 1294 2241 1995 2081 
Q 2697 1922 2975 1691 
Q 3250 1456 3250 1038 
Q 3250 581 2869 253 
Q 2488 -75 1741 -75 
Q 1063 -75 667 200 
Q 272 475 150 947 
z
" transform="scale(0.015625)"/>
      <path id="Arial-BoldMT-6e" d="M 3478 0 
L 2600 0 
L 2600 1694 
Q 2600 2231 2544 2389 
Q 2488 2547 2361 2634 
Q 2234 2722 2056 2722 
Q 1828 2722 1647 2597 
Q 1466 2472 1398 2265 
Q 1331 2059 1331 1503 
L 1331 0 
L 453 0 
L 453 3319 
L 1269 3319 
L 1269 2831 
Q 1703 3394 2363 3394 
Q 2653 3394 2893 3289 
Q 3134 3184 3257 3021 
Q 3381 2859 3429 2653 
Q 3478 2447 3478 2063 
L 3478 0 
z
" transform="scale(0.015625)"/>
      <path id="Arial-BoldMT-64" d="M 3503 0 
L 2688 0 
L 2688 488 
Q 2484 203 2207 64 
Q 1931 -75 1650 -75 
Q 1078 -75 670 386 
Q 263 847 263 1672 
Q 263 2516 659 2955 
Q 1056 3394 1663 3394 
Q 2219 3394 2625 2931 
L 2625 4581 
L 3503 4581 
L 3503 0 
z
M 1159 1731 
Q 1159 1200 1306 963 
Q 1519 619 1900 619 
Q 2203 619 2415 876 
Q 2628 1134 2628 1647 
Q 2628 2219 2422 2470 
Q 2216 2722 1894 2722 
Q 1581 2722 1370 2473 
Q 1159 2225 1159 1731 
z
" transform="scale(0.015625)"/>
      <path id="Arial-BoldMT-49" d="M 438 0 
L 438 4581 
L 1363 4581 
L 1363 0 
L 438 0 
z
" transform="scale(0.015625)"/>
      <path id="Arial-BoldMT-70" d="M 434 3319 
L 1253 3319 
L 1253 2831 
Q 1413 3081 1684 3237 
Q 1956 3394 2288 3394 
Q 2866 3394 3269 2941 
Q 3672 2488 3672 1678 
Q 3672 847 3265 386 
Q 2859 -75 2281 -75 
Q 2006 -75 1782 34 
Q 1559 144 1313 409 
L 1313 -1263 
L 434 -1263 
L 434 3319 
z
M 1303 1716 
Q 1303 1156 1525 889 
Q 1747 622 2066 622 
Q 2372 622 2575 867 
Q 2778 1113 2778 1672 
Q 2778 2194 2568 2447 
Q 2359 2700 2050 2700 
Q 1728 2700 1515 2451 
Q 1303 2203 1303 1716 
z
" transform="scale(0.015625)"/>
      <path id="Arial-BoldMT-74" d="M 1981 3319 
L 1981 2619 
L 1381 2619 
L 1381 1281 
Q 1381 875 1398 808 
Q 1416 741 1477 697 
Q 1538 653 1625 653 
Q 1747 653 1978 738 
L 2053 56 
Q 1747 -75 1359 -75 
Q 1122 -75 931 4 
Q 741 84 652 211 
Q 563 338 528 553 
Q 500 706 500 1172 
L 500 2619 
L 97 2619 
L 97 3319 
L 500 3319 
L 500 3978 
L 1381 4491 
L 1381 3319 
L 1981 3319 
z
" transform="scale(0.015625)"/>
      <path id="Arial-BoldMT-54" d="M 1497 0 
L 1497 3806 
L 138 3806 
L 138 4581 
L 3778 4581 
L 3778 3806 
L 2422 3806 
L 2422 0 
L 1497 0 
z
" transform="scale(0.015625)"/>
      <path id="Arial-BoldMT-28" d="M 1916 -1347 
L 1313 -1347 
Q 834 -625 584 153 
Q 334 931 334 1659 
Q 334 2563 644 3369 
Q 913 4069 1325 4659 
L 1925 4659 
Q 1497 3713 1336 3048 
Q 1175 2384 1175 1641 
Q 1175 1128 1270 590 
Q 1366 53 1531 -431 
Q 1641 -750 1916 -1347 
z
" transform="scale(0.015625)"/>
      <path id="Arial-BoldMT-46" d="M 472 0 
L 472 4581 
L 3613 4581 
L 3613 3806 
L 1397 3806 
L 1397 2722 
L 3309 2722 
L 3309 1947 
L 1397 1947 
L 1397 0 
L 472 0 
z
" transform="scale(0.015625)"/>
      <path id="Arial-BoldMT-69" d="M 459 3769 
L 459 4581 
L 1338 4581 
L 1338 3769 
L 459 3769 
z
M 459 0 
L 459 3319 
L 1338 3319 
L 1338 0 
L 459 0 
z
" transform="scale(0.015625)"/>
      <path id="Arial-BoldMT-6f" d="M 256 1706 
Q 256 2144 472 2553 
Q 688 2963 1083 3178 
Q 1478 3394 1966 3394 
Q 2719 3394 3200 2905 
Q 3681 2416 3681 1669 
Q 3681 916 3195 420 
Q 2709 -75 1972 -75 
Q 1516 -75 1102 131 
Q 688 338 472 736 
Q 256 1134 256 1706 
z
M 1156 1659 
Q 1156 1166 1390 903 
Q 1625 641 1969 641 
Q 2313 641 2545 903 
Q 2778 1166 2778 1666 
Q 2778 2153 2545 2415 
Q 2313 2678 1969 2678 
Q 1625 2678 1390 2415 
Q 1156 2153 1156 1659 
z
" transform="scale(0.015625)"/>
      <path id="Arial-BoldMT-66" d="M 75 3319 
L 563 3319 
L 563 3569 
Q 563 3988 652 4194 
Q 741 4400 980 4529 
Q 1219 4659 1584 4659 
Q 1959 4659 2319 4547 
L 2200 3934 
Q 1991 3984 1797 3984 
Q 1606 3984 1523 3895 
Q 1441 3806 1441 3553 
L 1441 3319 
L 2097 3319 
L 2097 2628 
L 1441 2628 
L 1441 0 
L 563 0 
L 563 2628 
L 75 2628 
L 75 3319 
z
" transform="scale(0.015625)"/>
      <path id="Arial-BoldMT-61" d="M 1116 2306 
L 319 2450 
Q 453 2931 781 3162 
Q 1109 3394 1756 3394 
Q 2344 3394 2631 3255 
Q 2919 3116 3036 2902 
Q 3153 2688 3153 2116 
L 3144 1091 
Q 3144 653 3186 445 
Q 3228 238 3344 0 
L 2475 0 
Q 2441 88 2391 259 
Q 2369 338 2359 363 
Q 2134 144 1878 34 
Q 1622 -75 1331 -75 
Q 819 -75 523 203 
Q 228 481 228 906 
Q 228 1188 362 1408 
Q 497 1628 739 1745 
Q 981 1863 1438 1950 
Q 2053 2066 2291 2166 
L 2291 2253 
Q 2291 2506 2166 2614 
Q 2041 2722 1694 2722 
Q 1459 2722 1328 2630 
Q 1197 2538 1116 2306 
z
M 2291 1594 
Q 2122 1538 1756 1459 
Q 1391 1381 1278 1306 
Q 1106 1184 1106 997 
Q 1106 813 1243 678 
Q 1381 544 1594 544 
Q 1831 544 2047 700 
Q 2206 819 2256 991 
Q 2291 1103 2291 1419 
L 2291 1594 
z
" transform="scale(0.015625)"/>
      <path id="Arial-BoldMT-29" d="M 216 -1347 
Q 475 -791 581 -494 
Q 688 -197 778 190 
Q 869 578 912 926 
Q 956 1275 956 1641 
Q 956 2384 797 3048 
Q 638 3713 209 4659 
L 806 4659 
Q 1278 3988 1539 3234 
Q 1800 2481 1800 1706 
Q 1800 1053 1594 306 
Q 1359 -531 822 -1347 
L 216 -1347 
z
" transform="scale(0.015625)"/>
     </defs>
     <use xlink:href="#Arial-BoldMT-52"/>
     <use xlink:href="#Arial-BoldMT-4f" x="72.216797"/>
     <use xlink:href="#Arial-BoldMT-43" x="150"/>
     <use xlink:href="#Arial-BoldMT-20" x="222.216797"/>
     <use xlink:href="#Arial-BoldMT-43" x="250"/>
     <use xlink:href="#Arial-BoldMT-75" x="322.216797"/>
     <use xlink:href="#Arial-BoldMT-72" x="383.300781"/>
     <use xlink:href="#Arial-BoldMT-76" x="422.216797"/>
     <use xlink:href="#Arial-BoldMT-65" x="477.832031"/>
     <use xlink:href="#Arial-BoldMT-73" x="533.447266"/>
     <use xlink:href="#Arial-BoldMT-20" x="589.0625"/>
     <use xlink:href="#Arial-BoldMT-75" x="616.845703"/>
     <use xlink:href="#Arial-BoldMT-6e" x="677.929688"/>
     <use xlink:href="#Arial-BoldMT-64" x="739.013672"/>
     <use xlink:href="#Arial-BoldMT-65" x="800.097656"/>
     <use xlink:href="#Arial-BoldMT-72" x="855.712891"/>
     <use xlink:href="#Arial-BoldMT-20" x="894.628906"/>
     <use xlink:href="#Arial-BoldMT-49" x="922.412109"/>
     <use xlink:href="#Arial-BoldMT-6e" x="950.195312"/>
     <use xlink:href="#Arial-BoldMT-64" x="1011.279297"/>
     <use xlink:href="#Arial-BoldMT-65" x="1072.363281"/>
     <use xlink:href="#Arial-BoldMT-70" x="1127.978516"/>
     <use xlink:href="#Arial-BoldMT-65" x="1189.0625"/>
     <use xlink:href="#Arial-BoldMT-6e" x="1244.677734"/>
     <use xlink:href="#Arial-BoldMT-64" x="1305.761719"/>
     <use xlink:href="#Arial-BoldMT-65" x="1366.845703"/>
     <use xlink:href="#Arial-BoldMT-6e" x="1422.460938"/>
     <use xlink:href="#Arial-BoldMT-74" x="1483.544922"/>
     <use xlink:href="#Arial-BoldMT-20" x="1516.845703"/>
     <use xlink:href="#Arial-BoldMT-54" x="1544.628906"/>
     <use xlink:href="#Arial-BoldMT-65" x="1598.337891"/>
     <use xlink:href="#Arial-BoldMT-73" x="1653.953125"/>
     <use xlink:href="#Arial-BoldMT-74" x="1709.568359"/>
     <use xlink:href="#Arial-BoldMT-28" x="1742.869141"/>
     <use xlink:href="#Arial-BoldMT-46" x="1776.169922"/>
     <use xlink:href="#Arial-BoldMT-75" x="1837.253906"/>
     <use xlink:href="#Arial-BoldMT-73" x="1898.337891"/>
     <use xlink:href="#Arial-BoldMT-69" x="1953.953125"/>
     <use xlink:href="#Arial-BoldMT-6f" x="1981.736328"/>
     <use xlink:href="#Arial-BoldMT-6e" x="2042.820312"/>
     <use xlink:href="#Arial-BoldMT-20" x="2103.904297"/>
     <use xlink:href="#Arial-BoldMT-66" x="2131.6875"/>
     <use xlink:href="#Arial-BoldMT-65" x="2164.988281"/>
     <use xlink:href="#Arial-BoldMT-61" x="2220.603516"/>
     <use xlink:href="#Arial-BoldMT-74" x="2276.21875"/>
     <use xlink:href="#Arial-BoldMT-75" x="2309.519531"/>
     <use xlink:href="#Arial-BoldMT-72" x="2370.603516"/>
     <use xlink:href="#Arial-BoldMT-65" x="2409.519531"/>
     <use xlink:href="#Arial-BoldMT-29" x="2465.134766"/>
    </g>
   </g>
   <g id="legend_1">
    <g id="patch_7">
     <path d="M 310.69625 350.303594 
L 483.825938 350.303594 
Q 485.825938 350.303594 485.825938 348.303594 
L 485.825938 305.269219 
Q 485.825938 303.269219 483.825938 303.269219 
L 310.69625 303.269219 
Q 308.69625 303.269219 308.69625 305.269219 
L 308.69625 348.303594 
Q 308.69625 350.303594 310.69625 350.303594 
z
" style="fill: #ffffff; opacity: 0.8; stroke: #cccccc; stroke-linejoin: miter"/>
    </g>
    <g id="line2d_17">
     <path d="M 312.69625 311.367656 
L 322.69625 311.367656 
L 332.69625 311.367656 
" style="fill: none; stroke: #4169e1; stroke-width: 2; stroke-linecap: square"/>
    </g>
    <g id="text_16">
     <!-- Combine (AUROC = 0.8311) -->
     <g transform="translate(340.69625 314.867656) scale(0.1 -0.1)">
      <defs>
       <path id="DejaVuSans-43" d="M 4122 4306 
L 4122 3641 
Q 3803 3938 3442 4084 
Q 3081 4231 2675 4231 
Q 1875 4231 1450 3742 
Q 1025 3253 1025 2328 
Q 1025 1406 1450 917 
Q 1875 428 2675 428 
Q 3081 428 3442 575 
Q 3803 722 4122 1019 
L 4122 359 
Q 3791 134 3420 21 
Q 3050 -91 2638 -91 
Q 1578 -91 968 557 
Q 359 1206 359 2328 
Q 359 3453 968 4101 
Q 1578 4750 2638 4750 
Q 3056 4750 3426 4639 
Q 3797 4528 4122 4306 
z
" transform="scale(0.015625)"/>
       <path id="DejaVuSans-6f" d="M 1959 3097 
Q 1497 3097 1228 2736 
Q 959 2375 959 1747 
Q 959 1119 1226 758 
Q 1494 397 1959 397 
Q 2419 397 2687 759 
Q 2956 1122 2956 1747 
Q 2956 2369 2687 2733 
Q 2419 3097 1959 3097 
z
M 1959 3584 
Q 2709 3584 3137 3096 
Q 3566 2609 3566 1747 
Q 3566 888 3137 398 
Q 2709 -91 1959 -91 
Q 1206 -91 779 398 
Q 353 888 353 1747 
Q 353 2609 779 3096 
Q 1206 3584 1959 3584 
z
" transform="scale(0.015625)"/>
       <path id="DejaVuSans-6d" d="M 3328 2828 
Q 3544 3216 3844 3400 
Q 4144 3584 4550 3584 
Q 5097 3584 5394 3201 
Q 5691 2819 5691 2113 
L 5691 0 
L 5113 0 
L 5113 2094 
Q 5113 2597 4934 2840 
Q 4756 3084 4391 3084 
Q 3944 3084 3684 2787 
Q 3425 2491 3425 1978 
L 3425 0 
L 2847 0 
L 2847 2094 
Q 2847 2600 2669 2842 
Q 2491 3084 2119 3084 
Q 1678 3084 1418 2786 
Q 1159 2488 1159 1978 
L 1159 0 
L 581 0 
L 581 3500 
L 1159 3500 
L 1159 2956 
Q 1356 3278 1631 3431 
Q 1906 3584 2284 3584 
Q 2666 3584 2933 3390 
Q 3200 3197 3328 2828 
z
" transform="scale(0.015625)"/>
       <path id="DejaVuSans-62" d="M 3116 1747 
Q 3116 2381 2855 2742 
Q 2594 3103 2138 3103 
Q 1681 3103 1420 2742 
Q 1159 2381 1159 1747 
Q 1159 1113 1420 752 
Q 1681 391 2138 391 
Q 2594 391 2855 752 
Q 3116 1113 3116 1747 
z
M 1159 2969 
Q 1341 3281 1617 3432 
Q 1894 3584 2278 3584 
Q 2916 3584 3314 3078 
Q 3713 2572 3713 1747 
Q 3713 922 3314 415 
Q 2916 -91 2278 -91 
Q 1894 -91 1617 61 
Q 1341 213 1159 525 
L 1159 0 
L 581 0 
L 581 4863 
L 1159 4863 
L 1159 2969 
z
" transform="scale(0.015625)"/>
       <path id="DejaVuSans-69" d="M 603 3500 
L 1178 3500 
L 1178 0 
L 603 0 
L 603 3500 
z
M 603 4863 
L 1178 4863 
L 1178 4134 
L 603 4134 
L 603 4863 
z
" transform="scale(0.015625)"/>
       <path id="DejaVuSans-6e" d="M 3513 2113 
L 3513 0 
L 2938 0 
L 2938 2094 
Q 2938 2591 2744 2837 
Q 2550 3084 2163 3084 
Q 1697 3084 1428 2787 
Q 1159 2491 1159 1978 
L 1159 0 
L 581 0 
L 581 3500 
L 1159 3500 
L 1159 2956 
Q 1366 3272 1645 3428 
Q 1925 3584 2291 3584 
Q 2894 3584 3203 3211 
Q 3513 2838 3513 2113 
z
" transform="scale(0.015625)"/>
       <path id="DejaVuSans-65" d="M 3597 1894 
L 3597 1613 
L 953 1613 
Q 991 1019 1311 708 
Q 1631 397 2203 397 
Q 2534 397 2845 478 
Q 3156 559 3463 722 
L 3463 178 
Q 3153 47 2828 -22 
Q 2503 -91 2169 -91 
Q 1331 -91 842 396 
Q 353 884 353 1716 
Q 353 2575 817 3079 
Q 1281 3584 2069 3584 
Q 2775 3584 3186 3129 
Q 3597 2675 3597 1894 
z
M 3022 2063 
Q 3016 2534 2758 2815 
Q 2500 3097 2075 3097 
Q 1594 3097 1305 2825 
Q 1016 2553 972 2059 
L 3022 2063 
z
" transform="scale(0.015625)"/>
       <path id="DejaVuSans-20" transform="scale(0.015625)"/>
       <path id="DejaVuSans-28" d="M 1984 4856 
Q 1566 4138 1362 3434 
Q 1159 2731 1159 2009 
Q 1159 1288 1364 580 
Q 1569 -128 1984 -844 
L 1484 -844 
Q 1016 -109 783 600 
Q 550 1309 550 2009 
Q 550 2706 781 3412 
Q 1013 4119 1484 4856 
L 1984 4856 
z
" transform="scale(0.015625)"/>
       <path id="DejaVuSans-41" d="M 2188 4044 
L 1331 1722 
L 3047 1722 
L 2188 4044 
z
M 1831 4666 
L 2547 4666 
L 4325 0 
L 3669 0 
L 3244 1197 
L 1141 1197 
L 716 0 
L 50 0 
L 1831 4666 
z
" transform="scale(0.015625)"/>
       <path id="DejaVuSans-55" d="M 556 4666 
L 1191 4666 
L 1191 1831 
Q 1191 1081 1462 751 
Q 1734 422 2344 422 
Q 2950 422 3222 751 
Q 3494 1081 3494 1831 
L 3494 4666 
L 4128 4666 
L 4128 1753 
Q 4128 841 3676 375 
Q 3225 -91 2344 -91 
Q 1459 -91 1007 375 
Q 556 841 556 1753 
L 556 4666 
z
" transform="scale(0.015625)"/>
       <path id="DejaVuSans-52" d="M 2841 2188 
Q 3044 2119 3236 1894 
Q 3428 1669 3622 1275 
L 4263 0 
L 3584 0 
L 2988 1197 
Q 2756 1666 2539 1819 
Q 2322 1972 1947 1972 
L 1259 1972 
L 1259 0 
L 628 0 
L 628 4666 
L 2053 4666 
Q 2853 4666 3247 4331 
Q 3641 3997 3641 3322 
Q 3641 2881 3436 2590 
Q 3231 2300 2841 2188 
z
M 1259 4147 
L 1259 2491 
L 2053 2491 
Q 2509 2491 2742 2702 
Q 2975 2913 2975 3322 
Q 2975 3731 2742 3939 
Q 2509 4147 2053 4147 
L 1259 4147 
z
" transform="scale(0.015625)"/>
       <path id="DejaVuSans-4f" d="M 2522 4238 
Q 1834 4238 1429 3725 
Q 1025 3213 1025 2328 
Q 1025 1447 1429 934 
Q 1834 422 2522 422 
Q 3209 422 3611 934 
Q 4013 1447 4013 2328 
Q 4013 3213 3611 3725 
Q 3209 4238 2522 4238 
z
M 2522 4750 
Q 3503 4750 4090 4092 
Q 4678 3434 4678 2328 
Q 4678 1225 4090 567 
Q 3503 -91 2522 -91 
Q 1538 -91 948 565 
Q 359 1222 359 2328 
Q 359 3434 948 4092 
Q 1538 4750 2522 4750 
z
" transform="scale(0.015625)"/>
       <path id="DejaVuSans-3d" d="M 678 2906 
L 4684 2906 
L 4684 2381 
L 678 2381 
L 678 2906 
z
M 678 1631 
L 4684 1631 
L 4684 1100 
L 678 1100 
L 678 1631 
z
" transform="scale(0.015625)"/>
       <path id="DejaVuSans-33" d="M 2597 2516 
Q 3050 2419 3304 2112 
Q 3559 1806 3559 1356 
Q 3559 666 3084 287 
Q 2609 -91 1734 -91 
Q 1441 -91 1130 -33 
Q 819 25 488 141 
L 488 750 
Q 750 597 1062 519 
Q 1375 441 1716 441 
Q 2309 441 2620 675 
Q 2931 909 2931 1356 
Q 2931 1769 2642 2001 
Q 2353 2234 1838 2234 
L 1294 2234 
L 1294 2753 
L 1863 2753 
Q 2328 2753 2575 2939 
Q 2822 3125 2822 3475 
Q 2822 3834 2567 4026 
Q 2313 4219 1838 4219 
Q 1578 4219 1281 4162 
Q 984 4106 628 3988 
L 628 4550 
Q 988 4650 1302 4700 
Q 1616 4750 1894 4750 
Q 2613 4750 3031 4423 
Q 3450 4097 3450 3541 
Q 3450 3153 3228 2886 
Q 3006 2619 2597 2516 
z
" transform="scale(0.015625)"/>
       <path id="DejaVuSans-29" d="M 513 4856 
L 1013 4856 
Q 1481 4119 1714 3412 
Q 1947 2706 1947 2009 
Q 1947 1309 1714 600 
Q 1481 -109 1013 -844 
L 513 -844 
Q 928 -128 1133 580 
Q 1338 1288 1338 2009 
Q 1338 2731 1133 3434 
Q 928 4138 513 4856 
z
" transform="scale(0.015625)"/>
      </defs>
      <use xlink:href="#DejaVuSans-43"/>
      <use xlink:href="#DejaVuSans-6f" x="69.824219"/>
      <use xlink:href="#DejaVuSans-6d" x="131.005859"/>
      <use xlink:href="#DejaVuSans-62" x="228.417969"/>
      <use xlink:href="#DejaVuSans-69" x="291.894531"/>
      <use xlink:href="#DejaVuSans-6e" x="319.677734"/>
      <use xlink:href="#DejaVuSans-65" x="383.056641"/>
      <use xlink:href="#DejaVuSans-20" x="444.580078"/>
      <use xlink:href="#DejaVuSans-28" x="476.367188"/>
      <use xlink:href="#DejaVuSans-41" x="515.380859"/>
      <use xlink:href="#DejaVuSans-55" x="583.789062"/>
      <use xlink:href="#DejaVuSans-52" x="656.982422"/>
      <use xlink:href="#DejaVuSans-4f" x="726.464844"/>
      <use xlink:href="#DejaVuSans-43" x="805.175781"/>
      <use xlink:href="#DejaVuSans-20" x="875"/>
      <use xlink:href="#DejaVuSans-3d" x="906.787109"/>
      <use xlink:href="#DejaVuSans-20" x="990.576172"/>
      <use xlink:href="#DejaVuSans-30" x="1022.363281"/>
      <use xlink:href="#DejaVuSans-2e" x="1085.986328"/>
      <use xlink:href="#DejaVuSans-38" x="1117.773438"/>
      <use xlink:href="#DejaVuSans-33" x="1181.396484"/>
      <use xlink:href="#DejaVuSans-31" x="1245.019531"/>
      <use xlink:href="#DejaVuSans-31" x="1308.642578"/>
      <use xlink:href="#DejaVuSans-29" x="1372.265625"/>
     </g>
    </g>
    <g id="line2d_18">
     <path d="M 312.69625 326.045781 
L 322.69625 326.045781 
L 332.69625 326.045781 
" style="fill: none; stroke: #ff8c00; stroke-width: 2; stroke-linecap: square"/>
    </g>
    <g id="text_17">
     <!-- Weight (AUROC = 0.8470) -->
     <g transform="translate(340.69625 329.545781) scale(0.1 -0.1)">
      <defs>
       <path id="DejaVuSans-57" d="M 213 4666 
L 850 4666 
L 1831 722 
L 2809 4666 
L 3519 4666 
L 4500 722 
L 5478 4666 
L 6119 4666 
L 4947 0 
L 4153 0 
L 3169 4050 
L 2175 0 
L 1381 0 
L 213 4666 
z
" transform="scale(0.015625)"/>
       <path id="DejaVuSans-67" d="M 2906 1791 
Q 2906 2416 2648 2759 
Q 2391 3103 1925 3103 
Q 1463 3103 1205 2759 
Q 947 2416 947 1791 
Q 947 1169 1205 825 
Q 1463 481 1925 481 
Q 2391 481 2648 825 
Q 2906 1169 2906 1791 
z
M 3481 434 
Q 3481 -459 3084 -895 
Q 2688 -1331 1869 -1331 
Q 1566 -1331 1297 -1286 
Q 1028 -1241 775 -1147 
L 775 -588 
Q 1028 -725 1275 -790 
Q 1522 -856 1778 -856 
Q 2344 -856 2625 -561 
Q 2906 -266 2906 331 
L 2906 616 
Q 2728 306 2450 153 
Q 2172 0 1784 0 
Q 1141 0 747 490 
Q 353 981 353 1791 
Q 353 2603 747 3093 
Q 1141 3584 1784 3584 
Q 2172 3584 2450 3431 
Q 2728 3278 2906 2969 
L 2906 3500 
L 3481 3500 
L 3481 434 
z
" transform="scale(0.015625)"/>
       <path id="DejaVuSans-68" d="M 3513 2113 
L 3513 0 
L 2938 0 
L 2938 2094 
Q 2938 2591 2744 2837 
Q 2550 3084 2163 3084 
Q 1697 3084 1428 2787 
Q 1159 2491 1159 1978 
L 1159 0 
L 581 0 
L 581 4863 
L 1159 4863 
L 1159 2956 
Q 1366 3272 1645 3428 
Q 1925 3584 2291 3584 
Q 2894 3584 3203 3211 
Q 3513 2838 3513 2113 
z
" transform="scale(0.015625)"/>
       <path id="DejaVuSans-74" d="M 1172 4494 
L 1172 3500 
L 2356 3500 
L 2356 3053 
L 1172 3053 
L 1172 1153 
Q 1172 725 1289 603 
Q 1406 481 1766 481 
L 2356 481 
L 2356 0 
L 1766 0 
Q 1100 0 847 248 
Q 594 497 594 1153 
L 594 3053 
L 172 3053 
L 172 3500 
L 594 3500 
L 594 4494 
L 1172 4494 
z
" transform="scale(0.015625)"/>
       <path id="DejaVuSans-37" d="M 525 4666 
L 3525 4666 
L 3525 4397 
L 1831 0 
L 1172 0 
L 2766 4134 
L 525 4134 
L 525 4666 
z
" transform="scale(0.015625)"/>
      </defs>
      <use xlink:href="#DejaVuSans-57"/>
      <use xlink:href="#DejaVuSans-65" x="93.001953"/>
      <use xlink:href="#DejaVuSans-69" x="154.525391"/>
      <use xlink:href="#DejaVuSans-67" x="182.308594"/>
      <use xlink:href="#DejaVuSans-68" x="245.785156"/>
      <use xlink:href="#DejaVuSans-74" x="309.164062"/>
      <use xlink:href="#DejaVuSans-20" x="348.373047"/>
      <use xlink:href="#DejaVuSans-28" x="380.160156"/>
      <use xlink:href="#DejaVuSans-41" x="419.173828"/>
      <use xlink:href="#DejaVuSans-55" x="487.582031"/>
      <use xlink:href="#DejaVuSans-52" x="560.775391"/>
      <use xlink:href="#DejaVuSans-4f" x="630.257812"/>
      <use xlink:href="#DejaVuSans-43" x="708.96875"/>
      <use xlink:href="#DejaVuSans-20" x="778.792969"/>
      <use xlink:href="#DejaVuSans-3d" x="810.580078"/>
      <use xlink:href="#DejaVuSans-20" x="894.369141"/>
      <use xlink:href="#DejaVuSans-30" x="926.15625"/>
      <use xlink:href="#DejaVuSans-2e" x="989.779297"/>
      <use xlink:href="#DejaVuSans-38" x="1021.566406"/>
      <use xlink:href="#DejaVuSans-34" x="1085.189453"/>
      <use xlink:href="#DejaVuSans-37" x="1148.8125"/>
      <use xlink:href="#DejaVuSans-30" x="1212.435547"/>
      <use xlink:href="#DejaVuSans-29" x="1276.058594"/>
     </g>
    </g>
    <g id="line2d_19">
     <path d="M 312.69625 340.723906 
L 322.69625 340.723906 
L 332.69625 340.723906 
" style="fill: none; stroke: #228b22; stroke-width: 2; stroke-linecap: square"/>
    </g>
    <g id="text_18">
     <!-- GFN (AUROC = 0.8684) -->
     <g transform="translate(340.69625 344.223906) scale(0.1 -0.1)">
      <defs>
       <path id="DejaVuSans-47" d="M 3809 666 
L 3809 1919 
L 2778 1919 
L 2778 2438 
L 4434 2438 
L 4434 434 
Q 4069 175 3628 42 
Q 3188 -91 2688 -91 
Q 1594 -91 976 548 
Q 359 1188 359 2328 
Q 359 3472 976 4111 
Q 1594 4750 2688 4750 
Q 3144 4750 3555 4637 
Q 3966 4525 4313 4306 
L 4313 3634 
Q 3963 3931 3569 4081 
Q 3175 4231 2741 4231 
Q 1884 4231 1454 3753 
Q 1025 3275 1025 2328 
Q 1025 1384 1454 906 
Q 1884 428 2741 428 
Q 3075 428 3337 486 
Q 3600 544 3809 666 
z
" transform="scale(0.015625)"/>
       <path id="DejaVuSans-46" d="M 628 4666 
L 3309 4666 
L 3309 4134 
L 1259 4134 
L 1259 2759 
L 3109 2759 
L 3109 2228 
L 1259 2228 
L 1259 0 
L 628 0 
L 628 4666 
z
" transform="scale(0.015625)"/>
       <path id="DejaVuSans-4e" d="M 628 4666 
L 1478 4666 
L 3547 763 
L 3547 4666 
L 4159 4666 
L 4159 0 
L 3309 0 
L 1241 3903 
L 1241 0 
L 628 0 
L 628 4666 
z
" transform="scale(0.015625)"/>
      </defs>
      <use xlink:href="#DejaVuSans-47"/>
      <use xlink:href="#DejaVuSans-46" x="77.490234"/>
      <use xlink:href="#DejaVuSans-4e" x="135.009766"/>
      <use xlink:href="#DejaVuSans-20" x="209.814453"/>
      <use xlink:href="#DejaVuSans-28" x="241.601562"/>
      <use xlink:href="#DejaVuSans-41" x="280.615234"/>
      <use xlink:href="#DejaVuSans-55" x="349.023438"/>
      <use xlink:href="#DejaVuSans-52" x="422.216797"/>
      <use xlink:href="#DejaVuSans-4f" x="491.699219"/>
      <use xlink:href="#DejaVuSans-43" x="570.410156"/>
      <use xlink:href="#DejaVuSans-20" x="640.234375"/>
      <use xlink:href="#DejaVuSans-3d" x="672.021484"/>
      <use xlink:href="#DejaVuSans-20" x="755.810547"/>
      <use xlink:href="#DejaVuSans-30" x="787.597656"/>
      <use xlink:href="#DejaVuSans-2e" x="851.220703"/>
      <use xlink:href="#DejaVuSans-38" x="883.007812"/>
      <use xlink:href="#DejaVuSans-36" x="946.630859"/>
      <use xlink:href="#DejaVuSans-38" x="1010.253906"/>
      <use xlink:href="#DejaVuSans-34" x="1073.876953"/>
      <use xlink:href="#DejaVuSans-29" x="1137.5"/>
     </g>
    </g>
   </g>
  </g>
 </g>
 <defs>
  <clipPath id="p8c7d267e42">
   <rect x="44.425938" y="22.663594" width="446.4" height="332.64"/>
  </clipPath>
 </defs>
</svg>
